<svg width="186" height="114" xmlns="http://www.w3.org/2000/svg" xmlns:svg="http://www.w3.org/2000/svg" clip-rule="evenodd">
  <defs>
    <style type="text/css">
     <![CDATA[
      .fil1 {fill:#00bfff}
      .fil0 {fill:#FEFEFE}
      .fil2 {fill:#00bfff;fill-rule:nonzero}
      .fil3 {fill:#FEFEFE;fill-rule:nonzero}
     ]]>
    </style>
  </defs>
  <g id="icon">
    <path stroke="null" id="sqrt" d="m71.44744,-0.00001l0,0l0,0l0,0l0,0.02146l-24.57414,78.85186l-11.35347,-36.42123l-0.02146,0l0,-0.02146l-35.49836,0l0,18.73644l21.71967,0l16.2683,52.11005l17.79211,0l29.44604,-94.54068l10.36621,0l0,0.02146l83.44476,0l5.98794,-18.73644c-37.49434,0 -76.06179,-0.02146 -113.57759,-0.02146l0,0l-0.00001,0z" class="fil1"/>
    <polygon stroke="null" id="item0" points="175.68901089889522,29.231412383714154 92.58763720179984,29.231412383714154 86.68554760165141,47.967852200958376 169.78691326636516,47.967852200958376 " class="fil0"/>
    <polygon stroke="null" id="item1" points="165.4301012764169,61.810922959712414 82.32873561170315,61.810922959712414 76.44811656764948,80.54736076886122 159.54948223236323,80.54736076886122 " class="fil0"/>
    <polygon stroke="null" id="item2" points="155.19267024241498,94.39043152761526 72.09130457770122,94.39043152761526 66.18921899374361,113.12686933676407 149.29058867464818,113.12686933676407 " class="fil0"/>
  </g>
</svg>
