<svg width="720" height="114" xmlns="http://www.w3.org/2000/svg" xmlns:svg="http://www.w3.org/2000/svg" clip-rule="evenodd">
  <defs>
    <style type="text/css">
     <![CDATA[
      .fil1 {fill:#00bfff}
      .fil0 {fill:#FEFEFE}
      .fil2 {fill:#00bfff;fill-rule:nonzero}
      .fil3 {fill:#FEFEFE;fill-rule:nonzero}
     ]]>
    </style>
  </defs>
  <g id="logo">
    <g id="icon">
      <path stroke="null" id="sqrt" d="m71.44744,-0.00001l0,0l0,0l0,0l0,0.02146l-24.57414,78.85186l-11.35347,-36.42123l-0.02146,0l0,-0.02146l-35.49836,0l0,18.73644l21.71967,0l16.2683,52.11005l17.79211,0l29.44604,-94.54068l10.36621,0l0,0.02146l83.44476,0l5.98794,-18.73644c-37.49434,0 -76.06179,-0.02146 -113.57759,-0.02146l0,0l-0.00001,0z" class="fil1"/>
      <polygon stroke="null" id="item0" points="175.68901089889522,29.231412383714154 92.58763720179984,29.231412383714154 86.68554760165141,47.967852200958376 169.78691326636516,47.967852200958376 " class="fil0"/>
      <polygon stroke="null" id="item1" points="165.4301012764169,61.810922959712414 82.32873561170315,61.810922959712414 76.44811656764948,80.54736076886122 159.54948223236323,80.54736076886122 " class="fil0"/>
      <polygon stroke="null" id="item2" points="155.19267024241498,94.39043152761526 72.09130457770122,94.39043152761526 66.18921899374361,113.12686933676407 149.29058867464818,113.12686933676407 " class="fil0"/>
    </g>
    <g id="text">
      <path stroke="null" id="c0" d="m229.03793,113.14874c-11.41785,0 -20.15294,-3.67003 -26.1838,-11.01007c-6.0094,-7.31859 -9.01409,-17.74918 -9.01409,-31.27032c0,-6.71765 0.90141,-12.70558 2.74715,-17.94234c1.82428,-5.23676 4.37827,-9.65796 7.64052,-13.28506c3.2837,-3.60564 7.16835,-6.37425 11.65394,-8.24146c4.50704,-1.86721 9.40041,-2.81154 14.72302,-2.81154c2.87593,0 5.47284,0.23608 7.79075,0.70825c2.31791,0.49363 4.33535,1.03018 6.09525,1.65259c1.73843,0.60094 3.19786,1.26626 4.37827,1.95306c1.18042,0.70825 2.08183,1.22334 2.68277,1.56673l-4.18511,12.83435c-2.01744,-1.30919 -4.4212,-2.42522 -7.27566,-3.34809c-2.833,-0.90141 -6.07378,-1.37358 -9.7438,-1.37358c-2.53253,0 -5.00068,0.47217 -7.38297,1.37358c-2.40376,0.92287 -4.54997,2.44668 -6.41718,4.5929c-1.88866,2.14622 -3.41248,5.00068 -4.5929,8.56339c-1.18042,3.58417 -1.75989,8.02683 -1.75989,13.34945c0,9.25018 1.5882,16.35414 4.76459,21.29043c3.19786,4.91483 8.41316,7.38297 15.64589,7.38297c4.18511,0 7.66198,-0.47217 10.40913,-1.43796c2.74715,-0.96579 4.95775,-1.91013 6.61034,-2.87593l4.05634,12.68412c-2.27499,1.39504 -5.34407,2.68277 -9.22872,3.86318c-3.88464,1.18042 -8.34877,1.78136 -13.41383,1.78136l0,0l0,0l-0.00001,0l0,-0.00001z" class="fil2" fill="black"/>
      <path stroke="null" id="a0" d="m286.4062,48.35457c5.06506,0 9.27164,0.57948 12.61973,1.75989c3.36956,1.18042 6.05232,2.833 8.0483,4.97921c2.01744,2.14622 3.4554,4.74313 4.33535,7.85514c0.85849,3.09055 1.30919,6.56741 1.30919,10.40913l0,36.63586c-2.36083,0.53655 -5.85916,1.13749 -10.47352,1.84574c-4.63582,0.68679 -9.82966,1.03018 -15.5815,1.03018c-3.92757,0 -7.49028,-0.34339 -10.66668,-1.03018c-3.1764,-0.70825 -5.90208,-1.86721 -8.17707,-3.47687c-2.27499,-1.60966 -4.01342,-3.71295 -5.23676,-6.2884c-1.22334,-2.57546 -1.82428,-5.73039 -1.82428,-9.48626c0,-3.58417 0.68679,-6.58888 2.08183,-9.03556c1.39504,-2.44668 3.2837,-4.39974 5.62308,-5.88062c2.36083,-1.48089 5.06506,-2.55399 8.11269,-3.21932c3.06909,-0.64386 6.24548,-0.96579 9.57211,-0.96579c4.18511,0 7.89806,0.34339 11.11738,1.05165l0,-1.97452c0,-3.04762 -0.96579,-5.60161 -2.87593,-7.66198c-1.93159,-2.0389 -5.23676,-3.06909 -9.95843,-3.06909c-3.04762,0 -5.98794,0.21462 -8.82093,0.64386c-2.833,0.4507 -5.12945,0.96579 -6.86788,1.5882l-2.23206,-12.96313c1.99598,-0.70825 4.85044,-1.33065 8.499,-1.91013c3.67003,-0.55802 7.46882,-0.83702 11.39639,-0.83702l0,0l0,0l-0.00001,0l0,0.00001zm1.43796,51.5735c1.73843,0 3.4554,-0.02146 5.10799,-0.06439c1.65259,-0.04292 3.09055,-0.15024 4.31389,-0.34339l0,-14.12208c-1.05165,-0.1717 -2.31791,-0.34339 -3.7988,-0.47217c-1.48089,-0.12877 -2.833,-0.19316 -4.05634,-0.19316c-1.65259,0 -3.26224,0.10731 -4.82898,0.32193c-1.5882,0.23608 -2.96177,0.60094 -4.14219,1.11603c-1.15896,0.53655 -2.10329,1.26626 -2.81154,2.23206c-0.68679,0.96579 -1.05165,2.23206 -1.05165,3.7988c0,2.79008 1.05165,4.76459 3.15493,5.94501c2.08183,1.18042 4.78605,1.78136 8.11269,1.78136l0,0l0,0l0,0.00001l0,-0.00001z" class="fil2"/>
      <path stroke="null" id="l0" d="m364.12057,108.81339c-0.25755,0.19316 -0.83702,0.49363 -1.75989,0.92287c-0.92287,0.42925 -2.12475,0.90141 -3.60564,1.37358c-1.48089,0.47217 -3.2837,0.90141 -5.42992,1.2448c-2.12475,0.34339 -4.54997,0.51509 -7.2542,0.51509c-7.42589,0 -12.83435,-2.18913 -16.22537,-6.61034c-3.41248,-4.39974 -5.10799,-10.83837 -5.10799,-19.29445l0,-52.23882l-17.01947,0l0,-13.34945l33.11606,0l0,66.76869c0,4.18511 0.81556,7.01812 2.48961,8.499c1.65259,1.48089 3.75587,2.23206 6.26694,2.23206c3.24078,0 5.94501,-0.42925 8.13415,-1.30919c2.16767,-0.87995 3.60564,-1.43796 4.31389,-1.69551l2.08183,12.94166l0,0l0,0.00001z" class="fil2"/>
      <path stroke="null" id="c1" d="m368.49885,80.67654c0,-4.44266 0.70825,-8.62778 2.10329,-12.55535c1.39504,-3.92757 3.51979,-7.36151 6.41718,-10.28036c2.87593,-2.91885 6.52449,-5.23676 10.92422,-6.93227c4.39974,-1.71697 9.65796,-2.55399 15.77466,-2.55399c3.67003,0 6.97519,0.25755 9.93697,0.77264c2.98323,0.53655 5.98794,1.39504 9.03556,2.61838l-3.54125,12.96313c-1.73843,-0.60094 -3.67003,-1.15896 -5.81624,-1.63112c-2.14622,-0.49363 -4.8719,-0.72971 -8.17707,-0.72971c-3.84172,0 -7.03958,0.47217 -9.61503,1.37358c-2.57546,0.92287 -4.65728,2.18913 -6.22402,3.7988c-1.56673,1.60966 -2.70423,3.56271 -3.41248,5.8377c-0.68679,2.25353 -1.03018,4.70021 -1.03018,7.31859c0,5.666 1.5882,10.13013 4.76459,13.34945c3.19786,3.24078 8.62778,4.85044 16.28976,4.85044c2.53253,0 5.17237,-0.1717 7.91953,-0.51509c2.74715,-0.36485 5.25822,-0.92287 7.53321,-1.71697l2.36083,13.22067c-2.27499,0.87995 -5.02214,1.5882 -8.24146,2.16767c-3.24078,0.55802 -7.03958,0.83702 -11.39639,0.83702c-6.2884,0 -11.6754,-0.81556 -16.16099,-2.46814c-4.48558,-1.67405 -8.17707,-3.92757 -11.053,-6.82496c-2.89739,-2.87593 -5.00068,-6.26694 -6.35279,-10.19451c-1.35212,-3.92757 -2.0389,-8.15561 -2.0389,-12.70558l0,0l0.00001,-0.00001l-0.00001,-0.00001z" class="fil2"/>
      <path stroke="null" id="u0" d="m481.88328,109.34994c-2.96177,0.77264 -6.56741,1.56673 -10.79545,2.36083c-4.22804,0.77264 -8.82093,1.15896 -13.80015,1.15896c-5.06506,0 -9.20726,-0.68679 -12.44804,-2.08183c-3.21932,-1.39504 -5.77331,-3.39102 -7.64052,-5.96647c-1.88866,-2.57546 -3.1764,-5.60161 -3.86318,-9.07848c-0.70825,-3.49833 -1.05165,-7.34005 -1.05165,-11.52517l0,-34.29649l16.0966,0l0,32.19319c0,5.68746 0.68679,9.89404 2.0389,12.64119c1.35212,2.74715 3.99196,4.12073 7.91953,4.12073c2.42522,0 4.8719,-0.21462 7.31859,-0.66532l0,-48.28979l16.22537,0l0,59.42864l0,0l0,0l0,0.00001z" class="fil2"/>
      <path stroke="null" id="l1" d="m537.23411,108.81339c-0.25755,0.19316 -0.85849,0.49363 -1.75989,0.92287c-0.92287,0.42925 -2.12475,0.90141 -3.60564,1.37358c-1.48089,0.47217 -3.30517,0.90141 -5.42992,1.2448c-2.14622,0.34339 -4.57144,0.51509 -7.27566,0.51509c-7.40443,0 -12.81289,-2.18913 -16.22537,-6.61034c-3.39102,-4.39974 -5.10799,-10.83837 -5.10799,-19.29445l0,-52.23882l-16.99801,0l0,-13.34945l33.0946,0l0,66.76869c0,4.18511 0.83702,7.01812 2.48961,8.499c1.67405,1.48089 3.75587,2.23206 6.2884,2.23206c3.24078,0 5.94501,-0.42925 8.11269,-1.30919c2.18913,-0.87995 3.6271,-1.43796 4.31389,-1.69551l2.10329,12.94166l0,0l0,0l0.00001,0.00001l-0.00001,0z" class="fil3"/>
      <path stroke="null" id="i0" d="m589.34416,108.81339c-3.30517,1.5882 -6.43864,2.63984 -9.35749,3.21932c-2.91885,0.55802 -5.60161,0.83702 -8.0483,0.83702c-4.18511,0 -7.7049,-0.60094 -10.5379,-1.82428c-2.833,-1.22334 -5.10799,-2.98323 -6.80349,-5.30115c-1.69551,-2.31791 -2.89739,-5.12945 -3.60564,-8.43462c-0.68679,-3.32663 -1.05165,-7.12542 -1.05165,-11.39639l0,-22.64255l-16.99801,0l0,-13.34945l33.0946,0l0,38.09528c0,3.64856 0.68679,6.39572 2.0389,8.17707c1.35212,1.78136 3.60564,2.68277 6.73911,2.68277c1.48089,0 3.2837,-0.19316 5.36553,-0.60094c2.10329,-0.38632 4.46412,-1.18042 7.06104,-2.40376l2.10329,12.94166l0,0l0,0l0.00001,0l0,0.00002z" class="fil3"/>
      <path stroke="null" id="i0dot" d="m565.39243,32.25798c0,3.13347 -1.00872,5.62308 -3.0047,7.44736c-2.01744,1.84574 -4.4212,2.74715 -7.21128,2.74715c-2.79008,0 -5.17237,-0.90141 -7.12542,-2.74715c-1.97452,-1.82428 -2.94031,-4.31389 -2.94031,-7.44736c0,-3.24078 0.96579,-5.77331 2.94031,-7.59759c1.95306,-1.82428 4.33535,-2.74715 7.12542,-2.74715c2.79008,0 5.19384,0.92287 7.21128,2.74715c1.99598,1.82428 3.0047,4.35681 3.0047,7.59759z" class="fil3"/>
      <path stroke="null" id="s0" d="m619.9277,99.26275c3.92757,0 6.93227,-0.27901 9.03556,-0.83702c2.08183,-0.57948 3.13347,-1.73843 3.13347,-3.47687c0,-1.13749 -0.32193,-2.10329 -0.98726,-2.87593c-0.64386,-0.7941 -1.56673,-1.45942 -2.74715,-2.0389c-1.15896,-0.55802 -2.53253,-1.11603 -4.05634,-1.63112c-1.52381,-0.51509 -3.11201,-1.05165 -4.76459,-1.56673c-2.36083,-0.70825 -4.76459,-1.50235 -7.21128,-2.42522c-2.44668,-0.92287 -4.65728,-2.08183 -6.67472,-3.47687c-1.99598,-1.39504 -3.64856,-3.15493 -4.95775,-5.30115c-1.30919,-2.12475 -1.97452,-4.80751 -1.97452,-8.0483c0,-2.61838 0.49363,-5.08652 1.50235,-7.38297c1.00872,-2.31791 2.57546,-4.37827 4.72167,-6.15963c2.12475,-1.78136 4.85044,-3.1764 8.17707,-4.18511c3.30517,-1.00872 7.27566,-1.50235 11.91148,-1.50235c4.01342,0 7.74783,0.30047 11.18177,0.90141c3.4554,0.6224 6.43864,1.50235 8.97117,2.61838l-2.48961,13.62845c-1.48089,-0.4507 -3.7988,-1.15896 -6.93227,-2.16767c-3.13347,-1.00872 -6.67472,-1.50235 -10.60229,-1.50235c-4.09927,0 -6.86788,0.49363 -8.30584,1.50235c-1.43796,1.00872 -2.16767,2.08183 -2.16767,3.21932c0,0.94433 0.32193,1.80282 0.98726,2.53253c0.64386,0.75118 1.52381,1.4165 2.61838,2.0389c1.09457,0.60094 2.36083,1.20188 3.7988,1.75989c1.43796,0.57948 2.98323,1.11603 4.63582,1.65259c2.36083,0.77264 4.80751,1.65259 7.34005,2.61838c2.53253,0.94433 4.80751,2.14622 6.86788,3.58417c2.0389,1.43796 3.73441,3.2837 5.0436,5.49431c1.30919,2.23206 1.95306,4.95775 1.95306,8.19853c0,2.51107 -0.47217,4.91483 -1.43796,7.18982c-0.96579,2.27499 -2.55399,4.22804 -4.78605,5.88062c-2.2106,1.67405 -5.10799,2.98323 -8.69216,3.92757c-3.58417,0.96579 -7.98391,1.43796 -13.22067,1.43796c-5.32261,0 -9.85112,-0.60094 -13.60699,-1.82428c-3.75587,-1.22334 -6.76057,-2.31791 -9.03556,-3.26224l2.48961,-13.49968c3.04762,1.22334 6.30987,2.36083 9.7438,3.41248c3.4554,1.05165 6.95373,1.56673 10.5379,1.56673l0,0l0,0.00001l0,-0.00002l-0.00002,0.00001z" class="fil3"/>
      <path stroke="null" id="t0" d="m669.52668,63.27075l-13.99331,0l0,-13.34945l13.99331,0l0,-15.45273l16.0966,-2.61838l0,18.07111l25.79748,0l0,13.34945l-25.79748,0l0,24.87461c0,2.25353 0.23608,4.09927 0.66532,5.49431c0.42925,1.39504 1.05165,2.48961 1.82428,3.26224c0.7941,0.7941 1.75989,1.30919 2.87593,1.5882c1.13749,0.25755 2.40376,0.38632 3.7988,0.38632c1.48089,0 2.85446,-0.04292 4.12073,-0.12877c1.26626,-0.08585 2.48961,-0.23608 3.67003,-0.47217c1.18042,-0.21462 2.40376,-0.53655 3.67003,-0.96579c1.26626,-0.4507 2.63984,-1.00872 4.12073,-1.71697l2.23206,13.886c-2.96177,1.22334 -6.18109,2.08183 -9.6365,2.61838c-3.43394,0.51509 -6.78203,0.77264 -10.00135,0.77264c-3.75587,0 -7.06104,-0.30047 -9.95843,-0.90141c-2.87593,-0.6224 -5.32261,-1.80282 -7.31859,-3.54125c-2.01744,-1.73843 -3.54125,-4.20658 -4.5929,-7.40443c-1.03018,-3.1764 -1.56673,-7.34005 -1.56673,-12.49096l0,-25.26093l0,0l0,0l-0.00001,-0.00001l0,-0.00001z" class="fil3"/>
    </g>
  </g>
</svg>
